<mxfile host="app.diagrams.net" modified="2023-05-25T19:43:21.310Z" agent="Mozilla/5.0 (Macintosh; Intel Mac OS X 10_15_7) AppleWebKit/605.1.15 (KHTML, like Gecko) Version/16.3 Safari/605.1.15" etag="Ohheu3bZjSzzeo3RpsKR" version="21.3.4" type="google">
  <diagram name="PÃ¡gina-1" id="Cf3XgDD3SVgLCTW4Tc1G">
    <mxGraphModel grid="1" page="1" gridSize="10" guides="1" tooltips="1" connect="1" arrows="1" fold="1" pageScale="1" pageWidth="827" pageHeight="1169" math="0" shadow="0">
      <root>
        <mxCell id="0" />
        <mxCell id="1" parent="0" />
        <mxCell id="UA4tysM6XPqgmEKZK5AF-1" value="" style="edgeStyle=orthogonalEdgeStyle;rounded=0;orthogonalLoop=1;jettySize=auto;html=1;strokeWidth=3;fontStyle=1" edge="1" parent="1" source="UA4tysM6XPqgmEKZK5AF-2" target="UA4tysM6XPqgmEKZK5AF-4">
          <mxGeometry relative="1" as="geometry" />
        </mxCell>
        <mxCell id="UA4tysM6XPqgmEKZK5AF-2" value="Inicio" style="ellipse;whiteSpace=wrap;html=1;aspect=fixed;strokeWidth=3;fontStyle=1;fillColor=#b1ddf0;strokeColor=#10739e;" vertex="1" parent="1">
          <mxGeometry x="374" y="10" width="80" height="80" as="geometry" />
        </mxCell>
        <mxCell id="UA4tysM6XPqgmEKZK5AF-3" value="" style="edgeStyle=orthogonalEdgeStyle;rounded=0;orthogonalLoop=1;jettySize=auto;html=1;strokeWidth=3;fontStyle=1" edge="1" parent="1" source="UA4tysM6XPqgmEKZK5AF-4" target="UA4tysM6XPqgmEKZK5AF-7">
          <mxGeometry relative="1" as="geometry" />
        </mxCell>
        <mxCell id="UA4tysM6XPqgmEKZK5AF-4" value="dia, mes, ano" style="shape=parallelogram;perimeter=parallelogramPerimeter;whiteSpace=wrap;html=1;fixedSize=1;strokeWidth=3;fontStyle=1;fillColor=#b0e3e6;strokeColor=#0e8088;" vertex="1" parent="1">
          <mxGeometry x="354" y="180" width="120" height="60" as="geometry" />
        </mxCell>
        <mxCell id="UA4tysM6XPqgmEKZK5AF-5" value="" style="edgeStyle=orthogonalEdgeStyle;rounded=0;orthogonalLoop=1;jettySize=auto;html=1;strokeWidth=3;fontStyle=1" edge="1" parent="1" source="UA4tysM6XPqgmEKZK5AF-7" target="UA4tysM6XPqgmEKZK5AF-9">
          <mxGeometry relative="1" as="geometry">
            <Array as="points">
              <mxPoint x="250" y="350" />
            </Array>
          </mxGeometry>
        </mxCell>
        <mxCell id="UA4tysM6XPqgmEKZK5AF-6" value="" style="edgeStyle=orthogonalEdgeStyle;rounded=0;orthogonalLoop=1;jettySize=auto;html=1;strokeWidth=3;fontStyle=1" edge="1" parent="1" source="UA4tysM6XPqgmEKZK5AF-7" target="UA4tysM6XPqgmEKZK5AF-11">
          <mxGeometry relative="1" as="geometry">
            <Array as="points">
              <mxPoint x="580" y="350" />
            </Array>
          </mxGeometry>
        </mxCell>
        <mxCell id="UA4tysM6XPqgmEKZK5AF-7" value="dia&amp;gt;=29 ou dia&amp;lt;=31 ou mes&amp;gt;=1 ou mes&amp;lt;=12" style="rhombus;whiteSpace=wrap;html=1;strokeWidth=3;fontStyle=1;fillColor=#d0cee2;strokeColor=#56517e;" vertex="1" parent="1">
          <mxGeometry x="361" y="280" width="106" height="140" as="geometry" />
        </mxCell>
        <mxCell id="UA4tysM6XPqgmEKZK5AF-8" value="" style="edgeStyle=orthogonalEdgeStyle;rounded=0;orthogonalLoop=1;jettySize=auto;html=1;strokeWidth=3;fontStyle=1" edge="1" parent="1" source="UA4tysM6XPqgmEKZK5AF-9" target="UA4tysM6XPqgmEKZK5AF-12">
          <mxGeometry relative="1" as="geometry">
            <Array as="points">
              <mxPoint x="400" y="420" />
            </Array>
          </mxGeometry>
        </mxCell>
        <mxCell id="UA4tysM6XPqgmEKZK5AF-9" value="&quot;A data informada e valida&quot;" style="shape=document;whiteSpace=wrap;html=1;boundedLbl=1;strokeWidth=3;fontStyle=1;fillColor=#bac8d3;strokeColor=#23445d;" vertex="1" parent="1">
          <mxGeometry x="200" y="400" width="120" height="80" as="geometry" />
        </mxCell>
        <mxCell id="UA4tysM6XPqgmEKZK5AF-10" value="" style="edgeStyle=orthogonalEdgeStyle;rounded=0;orthogonalLoop=1;jettySize=auto;html=1;strokeWidth=3;fontStyle=1" edge="1" parent="1" source="UA4tysM6XPqgmEKZK5AF-11" target="UA4tysM6XPqgmEKZK5AF-12">
          <mxGeometry relative="1" as="geometry">
            <Array as="points">
              <mxPoint x="430" y="420" />
            </Array>
          </mxGeometry>
        </mxCell>
        <mxCell id="UA4tysM6XPqgmEKZK5AF-11" value="" style="shape=document;whiteSpace=wrap;html=1;boundedLbl=1;strokeWidth=3;fontStyle=1;fillColor=#bac8d3;strokeColor=#23445d;" vertex="1" parent="1">
          <mxGeometry x="510" y="400" width="120" height="80" as="geometry" />
        </mxCell>
        <mxCell id="UA4tysM6XPqgmEKZK5AF-12" value="Fim" style="ellipse;whiteSpace=wrap;html=1;strokeWidth=3;fontStyle=1;fillColor=#b1ddf0;strokeColor=#10739e;" vertex="1" parent="1">
          <mxGeometry x="354" y="530" width="120" height="80" as="geometry" />
        </mxCell>
      </root>
    </mxGraphModel>
  </diagram>
</mxfile>
